<svg width="298" height="122" viewBox="0 0 298 122" fill="none" xmlns="http://www.w3.org/2000/svg">
<path opacity="0.75" d="M49.7917 88.1257H49.7795C48.1705 88.3573 46.3666 88.4913 44.4529 88.4913C40.9425 88.4913 37.7734 88.0525 35.5307 87.3456C24.4997 84.5543 11.3113 75.2664 15.7847 45.9765C16.2478 42.9293 19.2097 40.9669 22.1229 41.7713C25.0848 42.588 28.9365 44.1238 32.7882 47.0004C28.2661 56.3371 26.584 68.8672 37.7856 81.7753C39.6993 81.4096 41.9908 81.1902 44.4529 81.1902C47.1467 81.1902 49.6454 81.4462 51.6688 81.885C63.0166 68.9038 61.2858 56.2883 56.7271 46.915C60.5544 44.0628 64.3696 42.5392 67.3193 41.7226C70.2324 40.9059 73.1943 42.8805 73.6575 45.9277C78.7037 78.9962 61.237 86.6021 49.7917 88.1257Z" fill="#1F40E6"/>
<path d="M51.4615 84.8593C50.779 85.6028 50.0476 86.3586 49.2797 87.1021C48.1583 88.2235 46.4519 88.4916 44.782 88.4916C43.1121 88.4916 41.4057 88.2235 40.2965 87.1021C39.5164 86.3464 38.7851 85.5907 38.1025 84.8471C30.8623 76.9244 28.6317 69.1357 29.034 62.1149C28.6927 56.5445 30.3382 51.2667 32.5931 46.8544C37.1152 50.0479 41.5763 55.0941 44.7211 62.639C47.8902 55.0453 52.3757 49.9625 56.9343 46.769C59.2137 51.1936 60.8714 56.508 60.5423 62.1027C60.9323 69.1357 58.7017 76.9244 51.4615 84.8593Z" fill="#1F40E6"/>
<path opacity="0.75" d="M56.9953 46.9152C52.4489 50.2305 47.878 55.3499 44.7211 63.2239C41.5764 55.3986 37.0543 50.3037 32.52 46.9883C35.0431 41.8811 38.4316 37.7369 41.0035 35.0066C43.0512 32.837 46.5007 32.837 48.5484 35.0066C51.1081 37.7369 54.4722 41.8568 56.9953 46.9152Z" fill="#1F40E6"/>
<path d="M144.158 48.7192C141.598 48.7192 139.368 49.2799 137.479 50.4135C135.589 51.5471 134.139 53.0707 133.139 54.9843L132.481 49.5115H125.107V81.8608H133.456V65.162C133.456 62.2001 134.212 59.8964 135.711 58.2509C137.21 56.5933 139.136 55.7766 141.476 55.7766C143.865 55.7766 145.633 56.5201 146.754 57.995C147.888 59.4698 148.449 61.6029 148.449 64.382V81.8608H156.798V63.5897C156.798 58.7263 155.689 55.0209 153.47 52.4978C151.264 49.9747 148.156 48.7192 144.158 48.7192Z" fill="#1F40E6"/>
<path d="M120.597 49.4993H110.687L99.2055 62.6024V48.7192H90.8561V81.8486H99.2055V65.6009L112.309 81.8486H122.742L107.36 64.2357L120.597 49.4993Z" fill="#1F40E6"/>
<path d="M257.21 49.4993H247.3L235.819 62.6024V48.7192H227.481V81.8486H235.819V65.6008L248.934 81.8486H259.367L243.973 64.2357L257.21 49.4993Z" fill="#1F40E6"/>
<path d="M209.722 55.8254C211.465 55.8254 212.977 56.2763 214.256 57.1661C215.536 58.0559 216.402 59.287 216.828 60.8472H225.629C224.849 57.0686 223.045 54.0945 220.217 51.9493C217.389 49.7919 213.915 48.7192 209.783 48.7192C206.48 48.7192 203.567 49.4384 201.044 50.8767C198.521 52.315 196.534 54.3139 195.071 56.8736C193.608 59.4333 192.889 62.3708 192.889 65.674C192.889 68.9772 193.621 71.9147 195.071 74.4744C196.522 77.034 198.521 79.0452 201.044 80.4713C203.567 81.9096 206.48 82.6287 209.783 82.6287C213.915 82.6287 217.389 81.5195 220.217 79.3012C223.045 77.0828 224.849 74.1453 225.629 70.5008H216.828C216.389 72.1097 215.536 73.353 214.256 74.2184C212.977 75.0838 211.465 75.5226 209.722 75.5226C207.418 75.5226 205.456 74.6572 203.847 72.9142C202.238 71.1712 201.434 68.7578 201.434 65.674C201.434 62.5902 202.238 60.1768 203.847 58.4338C205.456 56.6908 207.418 55.8254 209.722 55.8254Z" fill="#1F40E6"/>
<path d="M186.454 52.1687C183.796 49.865 180.176 48.707 175.569 48.707C172.875 48.707 170.437 49.1702 168.268 50.1088C166.098 51.0473 164.318 52.3759 162.953 54.1189C161.588 55.8619 160.796 57.8975 160.576 60.2499H168.731C169.036 58.6897 169.816 57.4952 171.083 56.6908C172.339 55.8863 173.826 55.4841 175.52 55.4841C177.385 55.4841 178.957 56.0082 180.213 57.0442C181.468 58.0925 182.102 59.7136 182.102 61.932V62.7121H173.887C169.194 62.7121 165.671 63.6506 163.319 65.5155C160.967 67.3804 159.796 69.8182 159.796 72.8167C159.796 74.5962 160.235 76.2295 161.101 77.7044C161.966 79.1793 163.295 80.3738 165.074 81.2636C166.854 82.1533 169.133 82.6043 171.924 82.6043C174.618 82.6043 176.824 82.0436 178.543 80.9101C180.262 79.7765 181.602 78.3504 182.553 76.6074L183.333 81.8242H190.439V61.9564C190.439 57.739 189.111 54.4724 186.454 52.1687ZM179.384 73.7552C178.055 75.3154 176.203 76.1077 173.814 76.1077C172.253 76.1077 170.986 75.7542 170.035 75.0594C169.084 74.3646 168.597 73.3895 168.597 72.1219C168.597 70.9518 169.072 69.9645 170.035 69.16C170.986 68.3555 172.583 67.9533 174.801 67.9533H181.907C181.541 70.257 180.713 72.195 179.384 73.7552Z" fill="#1F40E6"/>
<rect x="268" y="50" width="30" height="21" rx="5" fill="white"/>
<path d="M283.03 57H284.721V62.1953C284.721 62.7786 284.582 63.2891 284.303 63.7266C284.027 64.1641 283.64 64.5052 283.143 64.75C282.646 64.9922 282.066 65.1133 281.405 65.1133C280.741 65.1133 280.16 64.9922 279.663 64.75C279.165 64.5052 278.778 64.1641 278.502 63.7266C278.226 63.2891 278.088 62.7786 278.088 62.1953V57H279.78V62.0508C279.78 62.3555 279.846 62.6263 279.979 62.8633C280.114 63.1003 280.305 63.2865 280.549 63.4219C280.794 63.5573 281.079 63.625 281.405 63.625C281.733 63.625 282.018 63.5573 282.26 63.4219C282.505 63.2865 282.694 63.1003 282.827 62.8633C282.962 62.6263 283.03 62.3555 283.03 62.0508V57ZM287.72 57V65H286.029V57H287.72Z" fill="#1F40E6"/>
</svg>
